<svg width="12" height="17" viewBox="0 0 12 17" fill="none" xmlns="http://www.w3.org/2000/svg">
<path d="M8.23066 6.91686C7.46313 6.8169 6.66286 6.83102 5.90743 6.82742C5.46491 6.82592 5.00513 6.78088 4.59541 6.66542C3.74496 6.4216 3.55956 5.5604 4.19368 4.93029C4.36127 4.76291 4.5687 4.63013 4.81585 4.53217C5.67476 4.14118 6.56662 3.96459 7.52252 4.01508C8.00471 4.05125 8.09113 3.94123 8.0702 3.49497C8.04058 3.02676 8.00234 2.5368 7.94168 2.05572C7.91899 1.7363 7.72893 1.58436 7.41594 1.58208C6.81268 1.56852 6.23528 1.62066 5.66153 1.74692C4.89922 1.92273 4.89922 1.92273 4.62239 1.22427C4.23307 0.242006 4.23307 0.242006 3.19948 0.651663L2.75017 0.829745C2.2869 1.03855 2.22306 1.13962 2.41341 1.61988L2.66428 2.25285C2.90653 2.86406 2.90653 2.86406 2.3864 3.32284C1.11116 4.43451 0.601864 5.77298 1.10372 7.36726C1.55899 8.77812 2.67227 9.42289 4.10883 9.63652C4.99228 9.76632 5.90474 9.70768 6.79858 9.73242C7.14261 9.74759 7.49519 9.78473 7.82018 9.88319C8.79523 10.1788 9.04978 11.2144 8.32063 11.9328C7.92658 12.3163 7.44978 12.5558 6.93817 12.708C6.11714 12.9325 5.29796 13.0297 4.45427 12.9347C3.96339 12.8766 3.85441 12.9956 3.89269 13.4857C3.92739 13.9013 3.96209 14.3169 4.00565 14.7544C4.06984 15.3098 4.16672 15.423 4.75603 15.4672C5.50624 15.5235 6.26329 15.4003 7.00296 15.2333C7.5768 15.1069 7.60792 15.1199 7.82422 15.6656L8.11837 16.4078C8.23949 16.7134 8.47469 16.8474 8.81163 16.7139L9.93501 16.2686C10.2495 16.144 10.3377 15.907 10.2166 15.6014C10.0781 15.2521 9.97079 14.9158 9.80994 14.5754C9.64908 14.235 9.73706 13.9981 10.0396 13.7772C10.7395 13.2471 11.2576 12.5872 11.5323 11.7711C12.2333 9.47277 10.7078 7.19783 8.23063 6.91674L8.23066 6.91686Z" fill="#9E9EA4"/>
</svg>
