<svg width="22" height="13" viewBox="0 0 22 13" fill="none" xmlns="http://www.w3.org/2000/svg">
<path fill-rule="evenodd" clip-rule="evenodd" d="M10.7303 0.678598C10.7304 0.678624 10.7304 0.678704 10.7304 0.678794V1.98177C10.7295 2.05347 10.7572 2.12273 10.8078 2.17403C10.8581 2.22514 10.927 2.25397 10.9989 2.25397C11.0708 2.25397 11.1395 2.22514 11.19 2.17403C11.2404 2.12273 11.2683 2.05347 11.2672 1.98177V1.70284C11.2672 1.14119 11.7307 0.685081 12.2885 0.750139C14.3339 0.988676 16.2076 1.78758 17.752 2.98951C18.1972 3.33605 18.2049 3.98983 17.8061 4.38891L17.5548 4.64031L17.555 4.64012C17.5036 4.69029 17.4744 4.759 17.474 4.8307C17.4734 4.90258 17.5019 4.97166 17.5526 5.0224C17.6033 5.07313 17.6724 5.1014 17.7443 5.10083C17.816 5.10046 17.8847 5.07107 17.9347 5.01959L18.1972 4.75683C18.5926 4.36115 19.2396 4.36419 19.5894 4.80065C20.8471 6.36981 21.6838 8.29152 21.9286 10.3951C21.9936 10.953 21.5375 11.4165 20.9759 11.4165H13.7172C13.2199 11.4165 12.8197 11.0261 12.5363 10.6176C12.5073 10.5759 12.4768 10.5354 12.4446 10.4963C12.2795 10.2953 12.136 10.0687 12.1014 9.81085L11.2646 3.57451C11.2646 3.57446 11.2646 3.57441 11.2647 3.57441C11.2647 3.57441 11.2648 3.57437 11.2648 3.57432C11.247 3.44108 11.133 3.34153 10.9984 3.34171C10.864 3.34171 10.7502 3.44149 10.7326 3.57497L9.91481 9.78998C9.88021 10.0529 9.73259 10.2833 9.56262 10.4868C9.52724 10.5292 9.49368 10.5732 9.46208 10.6186C9.17828 11.0266 8.77799 11.4167 8.28097 11.4167H1.02412C0.462505 11.4167 0.00641173 10.9532 0.0713493 10.3953C0.340397 8.08405 1.32387 5.99233 2.79483 4.3468C2.94978 4.17346 3.21769 4.17165 3.38203 4.33611L4.09165 5.04625C4.09168 5.04627 4.09172 5.04626 4.09172 5.04622C4.09172 5.04619 4.09176 5.04617 4.09178 5.0462C4.14195 5.09763 4.21044 5.127 4.28229 5.12738C4.35418 5.12794 4.42307 5.09967 4.47399 5.04894C4.52472 4.9982 4.55299 4.92912 4.55261 4.85724C4.55205 4.78554 4.52285 4.71683 4.47155 4.66666L4.19374 4.38868C3.79489 3.9896 3.8026 3.3358 4.24786 2.98925C6.04568 1.58998 8.28928 0.736974 10.7302 0.67859C10.7302 0.678589 10.7303 0.678592 10.7303 0.678598Z" fill="#9E9EA4"/>
<path fill-rule="evenodd" clip-rule="evenodd" d="M11.0024 5.65479C11.0025 5.65479 11.0026 5.65484 11.0026 5.65491L11.6277 10.3785C11.6377 10.4535 11.6784 10.5207 11.74 10.5634C12.0843 10.8022 12.3095 11.2037 12.3095 11.6595C12.3095 12.3988 11.7284 12.9881 11 12.9881C10.2745 12.9881 9.69043 12.3983 9.69043 11.6595C9.69043 11.1979 9.92456 10.7913 10.2755 10.5548C10.2755 10.5548 10.2755 10.5548 10.2755 10.5548C10.2754 10.5548 10.2754 10.5547 10.2755 10.5547C10.3388 10.5119 10.3808 10.4436 10.3905 10.3673L11.0023 5.65491C11.0023 5.65485 11.0024 5.6548 11.0024 5.65479Z" fill="#9E9EA4"/>
</svg>
