<svg width="8" height="5" viewBox="0 0 8 5" fill="none" xmlns="http://www.w3.org/2000/svg">
<path d="M4.0191 3.9994C4.09837 3.99549 4.17369 3.96519 4.23213 3.91383L6.89073 1.56609C6.95711 1.50718 6.99634 1.42544 6.99976 1.33886C7.00314 1.2523 6.97047 1.168 6.90884 1.1045C6.84727 1.04095 6.76182 1.00346 6.67132 1.00023C6.58083 0.996958 6.49272 1.02826 6.42634 1.08717L4 3.22913L1.57367 1.08717H1.57362C1.50724 1.02826 1.41913 0.996958 1.32863 1.00023C1.23815 1.00346 1.1527 1.04095 1.09111 1.1045C1.02953 1.168 0.99682 1.25229 1.00024 1.33886C1.00362 1.42543 1.04285 1.50718 1.10923 1.56609L3.76783 3.91383C3.83602 3.97384 3.92675 4.00477 4.01923 3.9994H4.0191Z" fill="black" stroke="black"/>
</svg>
