<svg width="20" height="20" viewBox="0 0 20 20" fill="none" xmlns="http://www.w3.org/2000/svg">
<path d="M18.3435 19.3436C18.8958 19.3436 19.3435 18.8958 19.3435 18.3436V17.1198C19.3435 16.5675 18.8958 16.1198 18.3435 16.1198H17.7314C16.1197 16.1198 14.5257 16.6062 12.9931 17.565C12.2736 18.0136 12.5791 19.3437 13.427 19.3436L18.3435 19.3436Z" fill="#9E9EA4"/>
<path d="M17.7311 12.8954C17.5768 12.8954 17.423 12.8988 17.2696 12.9054C16.6607 12.9316 16.1194 12.468 16.1194 11.8585V5.92716C16.1194 5.51322 16.5551 5.24402 16.9253 5.42921C17.2955 5.61439 17.7311 5.34519 17.7311 4.93125V4.52795C17.7311 4.22267 17.5586 3.94359 17.2856 3.80706L10.1188 0.223605C9.83733 0.0828421 9.50596 0.0828355 9.22444 0.223587L2.05733 3.80687C1.78424 3.94341 1.61173 4.22252 1.61173 4.52784V4.93084C1.61173 5.34492 2.0475 5.61423 2.41786 5.42903C2.78821 5.24383 3.22398 5.51314 3.22399 5.92721L3.22411 12.0224C3.22413 12.6699 2.61767 13.1446 1.97747 13.0473C1.59183 12.9886 1.20115 12.9458 0.805514 12.9208C0.361237 12.8928 0 13.2562 0 13.7014C0 14.1465 0.361344 14.5046 0.80553 14.534C2.43412 14.642 3.99841 15.0766 5.4266 15.8025C6.15097 16.1706 6.00277 17.158 5.20913 17.3323C4.0244 17.5926 2.82291 17.7292 1.61181 17.7312H0.806121C0.36096 17.7312 8.63073e-05 18.0921 8.63073e-05 18.5372C8.63073e-05 18.9824 0.36096 19.3433 0.806121 19.3433H1.61518C5.26436 19.3362 8.80421 18.2783 12.1384 16.1972C13.9314 15.0758 15.8131 14.5074 17.7316 14.5074H18.5376C18.9828 14.5074 19.3436 14.1465 19.3436 13.7014C19.3436 13.2562 18.9827 12.8953 18.5376 12.8954L17.7311 12.8954ZM8.86509 3.22388C8.86509 2.77882 9.22606 2.41802 9.67113 2.41802C10.1162 2.41802 10.4772 2.77882 10.4772 3.22388C10.4772 3.66895 10.1162 4.02975 9.67113 4.02975C9.22606 4.02975 8.86509 3.66895 8.86509 3.22388ZM4.83544 6.64216C4.83544 6.08988 5.28315 5.64216 5.83544 5.64216H6.25337C6.80565 5.64216 7.25337 6.08988 7.25337 6.64216V7.06009C7.25337 7.61238 6.80565 8.06009 6.25337 8.06009H5.83544C5.28315 8.06009 4.83544 7.61238 4.83544 7.06009V6.64216ZM10.477 11.0898C10.477 11.6421 10.0293 12.0898 9.47699 12.0898H5.83543C5.28315 12.0898 4.83544 11.6421 4.83544 11.0898V10.6719C4.83544 10.1196 5.28315 9.6719 5.83544 9.6719H9.47699C10.0293 9.6719 10.477 10.1196 10.477 10.6719V11.0898ZM14.507 12.6199C14.507 13.0634 14.2133 13.4501 13.7963 13.6009C13.7333 13.6237 13.6705 13.647 13.6079 13.6708C12.9013 13.9393 12.0891 13.4495 12.0891 12.6936V10.6719C12.0891 10.1196 12.5368 9.6719 13.0891 9.6719H13.507C14.0593 9.6719 14.507 10.1196 14.507 10.6719V12.6199ZM14.507 7.06018C14.507 7.61246 14.0593 8.06018 13.507 8.06018H9.865C9.31272 8.06018 8.865 7.61246 8.865 7.06018V6.64225C8.865 6.08996 9.31272 5.64225 9.865 5.64225H13.507C14.0593 5.64225 14.507 6.08996 14.507 6.64225V7.06018Z" fill="#9E9EA4"/>
</svg>
