<svg width="19" height="14" viewBox="0 0 19 14" fill="none" xmlns="http://www.w3.org/2000/svg">
<path d="M13.5714 2.8H11.5357V2.1H10.1786V0H8.82143V2.1H7.46429V2.8H5.42857C2.44286 2.8 0 5.32 0 8.4C0 11.48 2.44286 14 5.42857 14H13.5714C16.5571 14 19 11.48 19 8.4C19 5.32 16.5571 2.8 13.5714 2.8ZM7.29445 9.1H5.93731V10.5H4.58016V9.1H3.22302V7.7H4.58016V6.3H5.93731V7.7H7.29445V9.1ZM13.7409 10.5C12.6212 10.5 11.7052 9.555 11.7052 8.4C11.7052 7.245 12.6212 6.3 13.7409 6.3C14.8605 6.3 15.7766 7.245 15.7766 8.4C15.7766 9.555 14.8605 10.5 13.7409 10.5Z" fill="#9E9EA4"/>
</svg>
