<svg width="20" height="15" viewBox="0 0 20 15" fill="none" xmlns="http://www.w3.org/2000/svg">
<path d="M17.1706 0.818632C16.8857 0.533682 16.4379 0.533682 16.1732 0.818632C15.8883 1.10358 15.8883 1.55138 16.1732 1.81602C17.7202 3.38317 18.5751 5.43905 18.5751 7.65764C18.5751 9.85588 17.7202 11.932 16.1529 13.4789C15.868 13.7639 15.868 14.2117 16.1529 14.4763C16.2955 14.6188 16.4786 14.6799 16.6618 14.6799C16.8449 14.6799 17.0281 14.6188 17.1706 14.4763C19.0024 12.6445 19.9998 10.2223 19.9998 7.63732C19.9998 5.07264 19.0025 2.63022 17.1706 0.818705V0.818632Z" fill="#9E9EA4"/>
<path d="M2.08829 7.65761C2.08829 5.43905 2.94316 3.38325 4.51046 1.83634C4.79541 1.55139 4.79541 1.1036 4.51046 0.838957C4.22551 0.554007 3.77771 0.554007 3.51307 0.838957C1.66096 2.63015 0.663574 5.07261 0.663574 7.65758C0.663574 10.2425 1.66096 12.6647 3.49279 14.4965C3.63534 14.6391 3.81849 14.7001 4.00164 14.7001C4.1848 14.7001 4.36795 14.6391 4.5105 14.4965C4.79545 14.2116 4.79545 13.7638 4.5105 13.4992C2.9432 11.932 2.08832 9.85578 2.08832 7.65754L2.08829 7.65761Z" fill="#9E9EA4"/>
<path d="M14.769 3.22043C14.484 2.93548 14.0362 2.93548 13.7716 3.22043C13.4866 3.50538 13.4866 3.95317 13.7716 4.21781C14.6875 5.13371 15.1963 6.35503 15.1963 7.63723C15.1963 8.91957 14.6875 10.1407 13.7716 11.0566C13.4866 11.3416 13.4866 11.7894 13.7716 12.054C13.9141 12.1966 14.0973 12.2576 14.2804 12.2576C14.4636 12.2576 14.6467 12.1966 14.7893 12.054C15.9698 10.8735 16.6211 9.30615 16.6211 7.63719C16.6009 5.9884 15.9495 4.40078 14.769 3.22035V3.22043Z" fill="#9E9EA4"/>
<path d="M5.48744 7.65761C5.48744 6.35495 5.99629 5.1541 6.91219 4.2382C7.19714 3.95325 7.19714 3.50545 6.91219 3.24081C6.62724 2.95586 6.17944 2.95586 5.9148 3.24081C4.73427 4.42135 4.08301 5.98869 4.08301 7.678C4.08301 9.34711 4.75469 10.955 5.93527 12.1152C6.07781 12.2577 6.26096 12.3188 6.44412 12.3188C6.62727 12.3188 6.81042 12.2577 6.95297 12.1152C7.23792 11.8302 7.21762 11.3824 6.95297 11.1178C5.99633 10.1817 5.48748 8.94014 5.48748 7.65779L5.48744 7.65761Z" fill="#9E9EA4"/>
<path d="M9.51765 4.99123C9.09014 4.70628 8.52026 5.01153 8.52026 5.5204V9.7744C8.52026 10.2833 9.09018 10.5885 9.51765 10.3036L12.7133 8.16635C13.1001 7.90171 13.1001 7.35226 12.7133 7.08759L9.51765 4.99123Z" fill="#9E9EA4"/>
</svg>
