<svg width="6" height="8" viewBox="0 0 6 8" fill="none" xmlns="http://www.w3.org/2000/svg">
<path d="M1.00249 4.47294L2.9703 7.06295C3.02848 7.13929 3.11921 7.18417 3.21553 7.18417C3.31184 7.18417 3.40258 7.13929 3.46076 7.06295L5.42857 4.47294C5.84564 3.92412 6.04159 3.24013 5.97801 2.55505C5.91437 1.87007 5.59576 1.23333 5.08463 0.769833C4.5735 0.306336 3.90679 0.0493164 3.21507 0.0493164C2.52334 0.0493164 1.85655 0.30632 1.34552 0.769833C0.834479 1.23334 0.515844 1.87009 0.452202 2.55505C0.388565 3.24008 0.584504 3.92407 1.00164 4.47294H1.00249ZM3.21561 1.35049C3.59437 1.35049 3.95767 1.50018 4.22553 1.76657C4.49339 2.03296 4.64383 2.39422 4.64383 2.77092C4.64383 3.14768 4.49338 3.50893 4.22553 3.77533C3.95768 4.04172 3.59437 4.19135 3.21561 4.19135C2.83685 4.19135 2.47354 4.04172 2.20568 3.77533C1.93784 3.50895 1.78739 3.14768 1.78739 2.77092C1.78788 2.39435 1.93845 2.03333 2.20625 1.76707C2.47398 1.50079 2.83699 1.35099 3.21561 1.35049Z" fill="#9E9EA4"/>
</svg>
