<svg width="12" height="15" viewBox="0 0 12 15" fill="none" xmlns="http://www.w3.org/2000/svg">
<path d="M7 14.0443C7 13.5165 7.42788 13.0886 7.95569 13.0886H9.30294C9.85522 13.0886 10.3029 12.6409 10.3029 12.0886V2.91147C10.3029 2.35918 9.85522 1.91147 9.30294 1.91147H7.95573C7.4279 1.91147 7 1.48357 7 0.955734V0.955734C7 0.427897 7.4279 0 7.95573 0H11C11.5523 0 12 0.447715 12 1V14C12 14.5523 11.5523 15 11 15H7.95569C7.42788 15 7 14.5721 7 14.0443V14.0443Z" fill="#E52420"/>
<path d="M6.99999 6.40784C7.55228 6.40783 8 6.85555 8 7.40784V7.59212C8 8.14441 7.55228 8.59212 7 8.59212H4.79377C4.08623 8.59212 3.67572 9.39297 4.0888 9.9674V9.9674C4.32033 10.2894 4.30431 10.7273 4.04988 11.0315L4.01502 11.0731C3.62205 11.543 2.89162 11.5164 2.53375 11.0194L0.420647 8.08428C0.169388 7.73528 0.169387 7.26472 0.420647 6.91572L2.53375 3.98064C2.89162 3.48356 3.62205 3.45705 4.01502 3.92686L4.04989 3.96855C4.30431 4.27273 4.32033 4.71064 4.08881 5.0326V5.0326C3.67572 5.60703 4.08624 6.40787 4.79377 6.40786L6.99999 6.40784Z" fill="#E52420"/>
</svg>
