<svg width="21" height="19" viewBox="0 0 21 19" fill="none" xmlns="http://www.w3.org/2000/svg">
<path d="M18.181 18.6725H2.62079C2.41447 18.6725 2.2165 18.5905 2.07062 18.4447C1.92474 18.2988 1.84277 18.1008 1.84277 17.8945V10.1144C1.84277 9.90807 1.92474 9.71009 2.07062 9.56421C2.2165 9.41834 2.41447 9.33636 2.62079 9.33636C2.8271 9.33636 3.02508 9.41834 3.17095 9.56421C3.31683 9.71009 3.3988 9.90807 3.3988 10.1144V16.7275C3.3988 16.8306 3.43978 16.9296 3.51272 17.0026C3.58566 17.0755 3.68465 17.1165 3.7878 17.1165H17.014C17.1172 17.1165 17.2162 17.0755 17.2891 17.0026C17.362 16.9296 17.403 16.8306 17.403 16.7275V10.1144C17.403 9.90807 17.485 9.71009 17.6309 9.56421C17.7767 9.41834 17.9747 9.33636 18.181 9.33636C18.3873 9.33636 18.5853 9.41834 18.7312 9.56421C18.8771 9.71009 18.959 9.90807 18.959 10.1144V17.8945C18.959 18.1008 18.8771 18.2988 18.7312 18.4447C18.5853 18.5905 18.3873 18.6725 18.181 18.6725Z" fill="#9E9EA4"/>
<path d="M8.84466 9.33636H11.9567C12.163 9.33636 12.361 9.41834 12.5069 9.56421C12.6528 9.71009 12.7347 9.90807 12.7347 10.1144V15.5605C12.7347 15.6636 12.6937 15.7626 12.6208 15.8355C12.5479 15.9085 12.4489 15.9495 12.3457 15.9495H8.45566C8.24084 15.9495 8.06665 15.7753 8.06665 15.5605V10.1144C8.06665 9.90807 8.14862 9.71009 8.2945 9.56421C8.44037 9.41834 8.63835 9.33636 8.84466 9.33636Z" fill="#9E9EA4"/>
<path d="M15.9132 0.000192051H4.88859C4.68124 1.83987e-05 4.48239 0.0826836 4.33616 0.229777L0.905258 3.66068C0.758165 3.8069 0.6755 4.00575 0.675673 4.21311V5.76914C0.669942 6.26146 0.845689 6.73854 1.16924 7.10945C1.49278 7.4804 1.9417 7.71919 2.43002 7.78032C2.9781 7.83433 3.52324 7.65337 3.93048 7.28261C4.33754 6.91185 4.56836 6.38599 4.56573 5.83529C4.56573 6.53012 4.9365 7.17231 5.53825 7.51966C6.13999 7.86716 6.88154 7.86716 7.48328 7.51966C8.08502 7.17234 8.4558 6.53012 8.4558 5.83529C8.4558 6.53012 8.82657 7.17231 9.42831 7.51966C10.03 7.86716 10.7716 7.86716 11.3733 7.51966C11.9751 7.17234 12.3459 6.53012 12.3459 5.83529C12.3459 6.53012 12.7166 7.17231 13.3184 7.51966C13.9201 7.86716 14.6617 7.86716 15.2634 7.51966C15.8651 7.17234 16.2359 6.53012 16.2359 5.83529C16.2333 6.38599 16.4641 6.91184 16.8712 7.28261C17.2784 7.65338 17.8236 7.83434 18.3716 7.78032C18.8628 7.71884 19.3137 7.4778 19.6377 7.10354C19.9617 6.72929 20.1355 6.24844 20.126 5.75366V4.19764C20.1262 3.99028 20.0435 3.79144 19.8964 3.64521L16.4653 0.214128C16.3165 0.0727652 16.1184 -0.00415148 15.9132 0.000192051Z" fill="#9E9EA4"/>
</svg>
