<svg width="13" height="13" viewBox="0 0 13 13" fill="none" xmlns="http://www.w3.org/2000/svg">
<path d="M11.1853 11.1373C8.49037 13.3862 4.4372 12.9857 2.14992 10.2448C-0.137201 7.50399 0.194463 3.44444 2.88922 1.19571C3.41459 0.757293 4.00526 0.409594 4.64469 0.162109C4.86428 0.0771365 5.11573 0.143698 5.26879 0.327114C5.42184 0.510529 5.44238 0.769913 5.31956 0.970676C4.13031 2.91452 4.32722 5.41395 5.80963 7.19039C7.29212 8.96693 9.71596 9.60812 11.8412 8.78583C12.0607 8.70092 12.3121 8.76749 12.4653 8.95098C12.6183 9.13454 12.6388 9.39384 12.5157 9.59466C12.1577 10.18 11.7101 10.6994 11.1853 11.1373ZM3.60055 2.04812C1.36764 3.91144 1.09293 7.27477 2.98784 9.54552C4.88297 11.8165 8.24116 12.1481 10.474 10.2849C10.5015 10.2619 10.5289 10.2387 10.5559 10.2153C8.47696 10.4101 6.37508 9.57115 4.97202 7.88979C3.56899 6.20847 3.12003 3.99039 3.68372 1.98007C3.65584 2.00257 3.62798 2.02524 3.60055 2.04812Z" fill="#9E9EA4"/>
</svg>
