<svg width="10" height="14" viewBox="0 0 10 14" fill="none" xmlns="http://www.w3.org/2000/svg">
<path d="M3.33103 12.25H6.66547C6.66547 12.8753 6.34768 13.4529 5.83191 13.7655C5.31604 14.0782 4.68049 14.0782 4.16461 13.7655C3.64884 13.4529 3.33105 12.8752 3.33105 12.25H3.33103ZM6.24866 1.38693V1.97897C6.97949 2.25017 7.61234 2.75239 8.06018 3.41645C8.50792 4.08052 8.74885 4.87389 8.74952 5.68759V6.68653C8.74991 7.31234 8.96321 7.91753 9.35116 8.3928L9.72204 8.84048C9.90298 9.0656 10.0014 9.35103 9.99998 9.64554V9.70098V9.70088C9.9996 10.0291 9.87516 10.3436 9.65401 10.5754C9.43285 10.8074 9.133 10.9376 8.82035 10.9376H1.22334C0.993265 10.9421 0.766786 10.8781 0.569945 10.7529C0.373211 10.6277 0.214371 10.4465 0.111832 10.2303C0.00871759 9.99934 -0.0241382 9.74065 0.0176316 9.4895C0.0593047 9.23824 0.17376 9.0065 0.345295 8.82595L0.518964 8.64366C0.985984 8.1509 1.24785 7.48378 1.24698 6.78859V5.68762C1.24766 4.87392 1.48859 4.08055 1.93632 3.41649C2.38417 2.75242 3.01701 2.2502 3.74784 1.979V1.31259C3.74784 0.964487 3.87954 0.630604 4.11408 0.38443C4.34851 0.138355 4.66659 0 4.99823 0H5.0649C5.74154 0.0393675 6.24861 0.676672 6.24861 1.38694L6.24866 1.38693ZM5.69297 3.62836C5.25357 3.40832 4.74303 3.40832 4.30363 3.62836C3.89786 3.77901 3.54635 4.05773 3.29756 4.42649C3.04879 4.79524 2.91494 5.23571 2.91427 5.68759V6.78867V6.78857C2.9166 7.64102 2.67984 8.47538 2.23347 9.18757H7.83106C7.34377 8.45381 7.0824 7.58092 7.0822 6.68653V5.68759C7.08152 5.23572 6.94768 4.79524 6.69891 4.42649C6.45015 4.05774 6.09864 3.77901 5.69285 3.62836L5.69297 3.62836Z" fill="black"/>
</svg>
