<svg width="12" height="13" viewBox="0 0 12 13" fill="none" xmlns="http://www.w3.org/2000/svg">
<path fill-rule="evenodd" clip-rule="evenodd" d="M1.63978 10.7759C1.4164 10.9008 1.13217 10.8179 1.00378 10.5885L0.0647133 8.91092C-0.063162 8.68255 0.00914952 8.38636 0.22544 8.24986L0.876402 7.83904C1.09318 7.70238 1.26856 7.37816 1.26856 7.1176L1.26791 5.8817C1.26775 5.61998 1.09157 5.29676 0.875276 5.16025L0.224149 4.74944C0.00753639 4.61278 -0.0649354 4.31773 0.0637439 4.08854L1.0038 2.41163C1.13184 2.18325 1.41704 2.09966 1.63996 2.22422L2.31105 2.59954C2.53426 2.72442 2.89485 2.71895 3.11389 2.58892L4.15364 1.97146C4.3738 1.84077 4.55772 1.52217 4.56432 1.26114L4.58429 0.47516C4.59089 0.213446 4.80268 0.00133088 5.05987 0.00116105L6.94011 9.7024e-08C7.19618 -0.000165743 7.40909 0.212289 7.41568 0.473489L7.43565 1.25981C7.44226 1.52152 7.62714 1.84029 7.84633 1.97064L8.88591 2.58878C9.10607 2.71963 9.466 2.72428 9.68893 2.59956L10.3602 2.22424C10.5836 2.09919 10.8678 2.18211 10.9963 2.41165L11.9354 4.08908C12.0633 4.31745 11.991 4.61381 11.7747 4.75014L11.1236 5.16096C10.9069 5.29779 10.7314 5.62184 10.7316 5.8824L10.7322 7.11847C10.7324 7.38019 10.9085 7.70324 11.1247 7.83975L11.7758 8.25056C11.9924 8.38739 12.0649 8.68227 11.9364 8.91163L10.9961 10.5884C10.8681 10.8167 10.5829 10.9005 10.36 10.7758L9.68907 10.4006C9.46569 10.2757 9.10527 10.2811 8.88605 10.4111L7.8463 11.0285C7.62615 11.1594 7.44239 11.4778 7.43563 11.7389L7.41582 12.525C7.40905 12.7866 7.19727 12.9987 6.94008 12.9988L5.05984 13C4.80393 13.0002 4.59086 12.7877 4.58426 12.5265L4.56429 11.7402C4.55769 11.4785 4.37281 11.1597 4.15378 11.0294L3.11403 10.4112C2.89403 10.2804 2.5341 10.2757 2.31101 10.4004L1.63978 10.7759ZM4.61469 8.97096C5.93982 9.75877 7.63437 9.29122 8.39937 7.92659C9.16454 6.56195 8.71036 4.81689 7.38522 4.02909C6.06009 3.24112 4.36571 3.70866 3.60054 5.07347C2.83554 6.4381 3.28955 8.18299 4.61469 8.97096Z" fill="#9E9EA4"/>
</svg>
