<svg width="14" height="15" viewBox="0 0 14 15" fill="none" xmlns="http://www.w3.org/2000/svg">
<path d="M6.77369 0.424916C6.50147 0.420456 6.27711 0.637421 6.27268 0.909588L6.22961 3.53816C6.22518 3.81033 6.44221 4.03466 6.71444 4.03913C6.98666 4.04359 7.21101 3.82663 7.21545 3.55446L7.25852 0.925886C7.26294 0.65372 7.04591 0.429385 6.77369 0.424916ZM0.849131 3.69587C0.691116 3.70437 0.54234 3.78989 0.454864 3.93583C0.314859 4.16927 0.390003 4.47131 0.623622 4.61138L2.87683 5.96316C3.11033 6.10317 3.41242 6.02808 3.55248 5.79452C3.69248 5.56108 3.61734 5.25904 3.38372 5.11898L1.13052 3.76719C1.04299 3.71466 0.943939 3.69077 0.849131 3.69587ZM12.5157 3.88839C12.4435 3.89305 12.371 3.91452 12.304 3.95164L10.0078 5.22844C9.76969 5.36067 9.68477 5.66003 9.81696 5.89802C9.94926 6.13606 10.2487 6.221 10.4867 6.08887L12.7831 4.8121C13.0211 4.67986 13.1061 4.38051 12.9739 4.14252C12.8912 3.99374 12.7453 3.90344 12.5877 3.88964C12.5641 3.88754 12.5397 3.88691 12.5157 3.88839ZM6.69288 5.35331C5.42817 5.33244 4.37542 6.35085 4.3547 7.61532C4.33398 8.87978 5.35272 9.93245 6.61744 9.95332C7.88216 9.97419 8.93494 8.95566 8.95563 7.69131C8.97634 6.42685 7.9576 5.37418 6.69288 5.35331ZM6.67668 6.33907C7.40849 6.35109 7.9817 6.94334 7.96962 7.67509C7.95769 8.40676 7.36539 8.97978 6.6335 8.96761C5.90168 8.95559 7.50195 8.96761 7.59919 7.69131C7.50195 6.33907 5.94478 6.3269 6.67668 6.33907ZM3.03507 9.15483C2.96292 9.15949 2.89041 9.18085 2.8235 9.21812L0.527136 10.4949C0.289066 10.6271 0.204147 10.9265 0.336337 11.1645C0.468663 11.4024 0.768058 11.4874 1.00596 11.3558L3.30232 10.079C3.54035 9.94686 3.6253 9.64739 3.49311 9.4094C3.41043 9.26062 3.26455 9.17032 3.10693 9.15652C3.08329 9.15454 3.0591 9.15335 3.03507 9.15483ZM10.1522 9.27237C9.9942 9.28097 9.84545 9.36638 9.75797 9.51233C9.61797 9.74576 9.69311 10.0478 9.92673 10.1879L12.1799 11.5397C12.4134 11.6797 12.7155 11.6046 12.8556 11.3711C12.9956 11.1377 12.9204 10.8356 12.6868 10.6956L10.4336 9.3438C10.3461 9.29126 10.2471 9.26716 10.1522 9.27237ZM6.59593 11.2678C6.32371 11.2634 6.09936 11.4803 6.09492 11.7525L6.05185 14.3811C6.04742 14.6532 6.26446 14.8776 6.53668 14.882C6.8089 14.8865 7.03325 14.6695 7.03769 14.3974L7.08076 11.7688C7.08519 11.4966 6.86815 11.2723 6.59593 11.2678Z" fill="url(#paint0_linear_389_344)"/>
<defs>
<linearGradient id="paint0_linear_389_344" x1="11.002" y1="12" x2="-0.498047" y2="3" gradientUnits="userSpaceOnUse">
<stop stop-color="#FF9900"/>
<stop offset="1" stop-color="#FFE600"/>
</linearGradient>
</defs>
</svg>
