<svg width="18" height="19" viewBox="0 0 18 19" fill="none" xmlns="http://www.w3.org/2000/svg">
<path fill-rule="evenodd" clip-rule="evenodd" d="M0.862316 12.9362C0.316954 13.5358 0.31896 14.4522 0.866689 15.0498L3.99173 18.4579C4.44673 18.9543 5.21787 18.9876 5.71407 18.5327C6.21045 18.0777 6.24375 17.3065 5.78878 16.8103L3.20107 13.9879L5.79223 11.138C6.24522 10.64 6.20842 9.86887 5.71041 9.41606C5.21221 8.96306 4.44126 8.99969 3.98826 9.49787L0.862316 12.9362Z" fill="#9E9EA4"/>
<path fill-rule="evenodd" clip-rule="evenodd" d="M0.502441 13.976C0.502441 13.3026 1.04818 12.7569 1.72149 12.7569L16.7809 12.7569C17.4542 12.7569 17.9999 13.3026 17.9999 13.976C17.9999 14.6493 17.4542 15.195 16.7809 15.195L1.72149 15.195C1.04818 15.195 0.502441 14.6493 0.502441 13.976Z" fill="#9E9EA4"/>
<path fill-rule="evenodd" clip-rule="evenodd" d="M17.592 3.83719C18.1373 4.43685 18.1353 5.35344 17.5876 5.95091L14.4626 9.3591C14.0076 9.8553 13.2364 9.88879 12.7402 9.43363C12.2439 8.97863 12.2105 8.20749 12.6655 7.71129L15.2532 4.88909L12.6621 2.03918C12.2091 1.54098 12.2459 0.770026 12.7439 0.317214C13.2421 -0.135779 14.013 -0.0993376 14.466 0.399031L17.592 3.83719Z" fill="#9E9EA4"/>
<path fill-rule="evenodd" clip-rule="evenodd" d="M17.9518 4.87745C17.9518 4.20413 17.406 3.65821 16.7327 3.65821L1.67383 3.65821C1.00051 3.65821 0.45459 4.20413 0.45459 4.87745C0.45459 5.55058 1.00051 6.09631 1.67383 6.09631L16.7327 6.09631C17.406 6.09631 17.9518 5.55058 17.9518 4.87745Z" fill="#9E9EA4"/>
</svg>
